<svg width="37" height="37" viewBox="0 0 37 37" fill="none" xmlns="http://www.w3.org/2000/svg">
<path d="M27.0701 36.06H20.9501L18.1601 35.14L15.3901 36.06H9.25011C4.21011 36.06 0.120117 31.97 0.120117 26.93V9.13C0.130117 4.09 4.22012 0 9.26012 0H27.0701C32.1101 0 36.2001 4.08 36.2001 9.12V26.93C36.2001 31.97 32.1101 36.06 27.0701 36.06Z" fill="#2D3847"/>
<path d="M15.3803 14.1099V18.0299H10.8604V23.1799H15.3803V36.0599H20.9503V23.1799H25.1004L25.8904 18.0299H20.9503V14.6899C20.8203 13.2699 21.8703 12.0199 23.2903 11.8999C23.4803 11.8799 23.6704 11.8899 23.8504 11.9099H26.1004V7.52993C24.7804 7.31993 23.4504 7.19993 22.1104 7.17993C18.0404 7.17993 15.3803 9.63993 15.3803 14.1099Z" fill="#F6F6F6"/>
</svg>
