<svg width="37" height="37" viewBox="0 0 37 37" fill="none" xmlns="http://www.w3.org/2000/svg">
<path d="M26.94 36.06H9.13C4.09 36.06 0 31.98 0 26.94V9.13C0 4.09 4.09 0 9.13 0H26.94C31.98 0 36.07 4.09 36.07 9.13V26.94C36.07 31.98 31.98 36.07 26.94 36.07" fill="#2D3847"/>
<path d="M18.9252 9.00111C19.5819 8.99859 20.2387 9.00519 20.8952 9.02091L21.0698 9.02721C21.2714 9.03441 21.4703 9.04341 21.7106 9.05421C22.6681 9.0992 23.3215 9.2504 23.8948 9.47269C24.4887 9.70128 24.9891 10.0109 25.4895 10.5113C25.947 10.9609 26.3011 11.5048 26.5271 12.1051C26.7494 12.6784 26.9006 13.3327 26.9456 14.2902C26.9564 14.5296 26.9654 14.7294 26.9726 14.931L26.978 15.1056C26.994 15.7619 27.0009 16.4183 26.9987 17.0747L26.9996 17.7461V18.9251C27.0018 19.5818 26.9949 20.2386 26.9789 20.8951L26.9735 21.0697C26.9663 21.2713 26.9573 21.4702 26.9465 21.7105C26.9015 22.668 26.7485 23.3214 26.5271 23.8947C26.3018 24.4957 25.9476 25.04 25.4895 25.4894C25.0395 25.9469 24.4953 26.301 23.8948 26.5271C23.3215 26.7494 22.6681 26.9006 21.7106 26.9456C21.4703 26.9564 21.2714 26.9654 21.0698 26.9726L20.8952 26.978C20.2387 26.994 19.5819 27.0009 18.9252 26.9987L18.2538 26.9996H17.0758C16.4191 27.0018 15.7623 26.9949 15.1058 26.9789L14.9312 26.9735C14.7176 26.9658 14.504 26.9568 14.2904 26.9465C13.3329 26.9015 12.6795 26.7485 12.1054 26.5271C11.5048 26.3015 10.9608 25.9474 10.5115 25.4894C10.0535 25.0397 9.69909 24.4955 9.473 23.8947C9.25071 23.3214 9.09951 22.668 9.05452 21.7105C9.04449 21.4969 9.03549 21.2833 9.02752 21.0697L9.02302 20.8951C9.00643 20.2386 8.99893 19.5818 9.00052 18.9251V17.0747C8.99801 16.4183 9.00461 15.7619 9.02032 15.1056L9.02662 14.931C9.03382 14.7294 9.04282 14.5296 9.05362 14.2902C9.09861 13.3318 9.24981 12.6793 9.47209 12.1051C9.69832 11.5045 10.0534 10.9607 10.5124 10.5122C10.9614 10.0538 11.5051 9.6991 12.1054 9.47269C12.6795 9.2504 13.332 9.0992 14.2904 9.05421L14.9312 9.02721L15.1058 9.02271C15.762 9.00612 16.4185 8.99862 17.0749 9.00021L18.9252 9.00111ZM18.0001 13.501C17.4038 13.4925 16.8119 13.6027 16.2586 13.825C15.7054 14.0473 15.2018 14.3774 14.7772 14.7961C14.3526 15.2147 14.0154 15.7136 13.7853 16.2636C13.5552 16.8137 13.4367 17.4041 13.4367 18.0004C13.4367 18.5966 13.5552 19.187 13.7853 19.7371C14.0154 20.2871 14.3526 20.786 14.7772 21.2046C15.2018 21.6233 15.7054 21.9534 16.2586 22.1757C16.8119 22.398 17.4038 22.5082 18.0001 22.4997C19.1935 22.4997 20.338 22.0257 21.1819 21.1818C22.0257 20.3379 22.4998 19.1933 22.4998 17.9999C22.4998 16.8065 22.0257 15.6619 21.1819 14.818C20.338 13.9741 19.1935 13.501 18.0001 13.501ZM18.0001 15.3009C18.3587 15.2943 18.7151 15.3592 19.0483 15.4919C19.3816 15.6245 19.6851 15.8223 19.9411 16.0736C20.197 16.3248 20.4004 16.6246 20.5392 16.9553C20.6781 17.2861 20.7496 17.6412 20.7497 17.9999C20.7497 18.3586 20.6783 18.7137 20.5396 19.0445C20.4009 19.3753 20.1976 19.6751 19.9417 19.9265C19.6858 20.1779 19.3824 20.3757 19.0492 20.5085C18.7159 20.6413 18.3596 20.7063 18.001 20.6998C17.2849 20.6998 16.5982 20.4154 16.0919 19.909C15.5855 19.4027 15.3011 18.716 15.3011 17.9999C15.3011 17.2838 15.5855 16.5971 16.0919 16.0908C16.5982 15.5844 17.2849 15.3 18.001 15.3L18.0001 15.3009ZM22.7248 12.151C22.4345 12.1626 22.1599 12.2861 21.9586 12.4957C21.7573 12.7052 21.6449 12.9845 21.6449 13.2751C21.6449 13.5656 21.7573 13.8449 21.9586 14.0545C22.1599 14.264 22.4345 14.3875 22.7248 14.3991C23.0232 14.3991 23.3093 14.2806 23.5203 14.0696C23.7312 13.8587 23.8498 13.5725 23.8498 13.2742C23.8498 12.9758 23.7312 12.6897 23.5203 12.4787C23.3093 12.2677 23.0232 12.1492 22.7248 12.1492V12.151Z" fill="white"/>
</svg>
