<svg width="37" height="37" viewBox="0 0 37 37" fill="none" xmlns="http://www.w3.org/2000/svg">
<path d="M27.1304 36.06H9.32043C4.28043 36.06 0.19043 31.97 0.19043 26.93V9.13C0.20043 4.09 4.28043 0 9.32043 0H27.1304C32.1704 0 36.2604 4.09 36.2604 9.13V26.94C36.2604 31.98 32.1704 36.07 27.1304 36.07" fill="#2D3847"/>
<path d="M28.0702 12.05C27.4402 12.32 26.7802 12.51 26.1102 12.61C26.4302 12.56 26.8902 11.99 27.0802 11.75C27.3702 11.4 27.5902 11 27.7302 10.56C27.7502 10.53 27.7602 10.48 27.7302 10.46C27.7002 10.45 27.6602 10.46 27.6302 10.46C26.8902 10.85 26.1102 11.15 25.3002 11.35C25.2402 11.37 25.1802 11.35 25.1402 11.31C25.0802 11.24 25.0102 11.17 24.9402 11.1C24.6002 10.81 24.2202 10.58 23.8102 10.41C23.2602 10.19 22.6702 10.09 22.0802 10.13C21.5102 10.17 20.9502 10.33 20.4402 10.59C19.9302 10.86 19.4802 11.22 19.1202 11.67C18.7402 12.13 18.4702 12.67 18.3302 13.26C18.2102 13.81 18.1902 14.38 18.2902 14.93C18.3002 15.02 18.2902 15.04 18.2102 15.02C15.1302 14.7 12.2802 13.25 10.2102 10.95C10.1202 10.84 10.0702 10.84 9.99021 10.95C9.13021 12.53 9.42019 14.48 10.6802 15.75C10.8402 15.9 11.0002 16.05 11.1702 16.18C10.6302 16.14 10.1102 15.99 9.63021 15.75C9.54021 15.69 9.4902 15.73 9.4802 15.83C9.4802 15.98 9.4802 16.14 9.5002 16.29C9.6902 17.75 10.6502 19 12.0102 19.55C12.1702 19.62 12.3502 19.67 12.5202 19.71C12.0202 19.81 11.5102 19.83 11.0102 19.76C10.9002 19.74 10.8602 19.79 10.9002 19.9C11.4302 21.28 12.6302 22.29 14.0802 22.57C14.2202 22.59 14.3702 22.59 14.5102 22.63C14.5102 22.64 14.4902 22.64 14.4802 22.66C13.8602 23.22 13.1202 23.61 12.3102 23.81C11.2502 24.19 10.1302 24.33 9.0102 24.23C8.8302 24.2 8.8002 24.21 8.7502 24.23C8.7002 24.25 8.75021 24.3 8.80021 24.35C9.03021 24.5 9.25021 24.63 9.49021 24.76C10.1902 25.13 10.9302 25.43 11.7002 25.64C15.7102 26.85 20.0502 25.83 23.1102 22.97C25.3002 20.6 26.4302 17.45 26.2702 14.23C26.2702 14.11 26.4202 14.04 26.5102 13.97C27.1002 13.51 27.6302 12.97 28.0602 12.36C28.1302 12.27 28.1602 12.16 28.1602 12.05V12.03C28.1602 11.98 28.1602 11.99 28.0802 12.03" fill="#F6F6F6"/>
</svg>
