<svg width="37" height="37" viewBox="0 0 37 37" fill="none" xmlns="http://www.w3.org/2000/svg">
<path d="M26.9996 36.06H9.18957C4.14957 36.06 0.0595703 31.97 0.0595703 26.93V9.13C0.0695703 4.09 4.14957 0 9.18957 0H26.9996C32.0396 0 36.1296 4.08 36.1296 9.13V26.94C36.1296 31.98 32.0396 36.07 26.9996 36.07" fill="#2D3847"/>
<path d="M27.6299 15.8601C27.6299 13.5001 25.7199 11.5801 23.3499 11.5801H12.4099C10.0499 11.5801 8.12988 13.4901 8.12988 15.8601V20.9501C8.12988 23.3101 10.0399 25.2301 12.4099 25.2301H23.3499C25.7099 25.2301 27.6299 23.3201 27.6299 20.9501V15.8601ZM21.1999 18.7901L16.2999 21.2201C16.1099 21.3201 15.4499 21.1801 15.4499 20.9701V15.9901C15.4499 15.7701 16.1099 15.6301 16.2999 15.7401L20.9899 18.2901C21.1899 18.4001 21.3899 18.6901 21.1899 18.7901" fill="#F6F6F6"/>
</svg>
