<svg width="146" height="139" viewBox="0 0 146 139" fill="none" xmlns="http://www.w3.org/2000/svg">
<g filter="url(#filter0_d_611_2659)">
<g filter="url(#filter1_b_611_2659)">
<rect width="120" height="120" rx="20" transform="matrix(0.996917 -0.0784591 -0.0826343 0.99658 25.916 15.415)" fill="url(#paint0_linear_611_2659)"/>
<rect x="0.457142" y="0.45906" width="119" height="119" rx="19.5" transform="matrix(0.996917 -0.0784591 -0.0826343 0.99658 25.9554 15.4525)" stroke="url(#paint1_linear_611_2659)"/>
</g>
<g clip-path="url(#clip0_611_2659)">
<path d="M50.9673 71.631C51.2286 70.332 51.4582 69.0294 51.7632 67.733C51.9862 66.7854 52.285 65.8394 52.6013 64.9026C52.6777 64.6785 52.9293 64.4299 53.1513 64.3004C55.7717 62.7596 58.5438 61.772 61.3604 60.9807C64.2284 60.1749 67.106 59.4546 69.9697 58.6263C73.9016 57.4913 77.4999 55.4661 80.901 52.9596C81.2021 52.7375 81.5022 52.5094 81.862 52.2402C83.0001 53.1413 84.1325 54.0383 85.312 54.9725C84.68 55.4464 84.1128 55.8712 83.547 56.2975C76.8735 61.3155 70.6473 66.8421 65.103 73.1254C61.6742 77.011 58.5787 81.1113 56.3677 85.725C55.8126 86.8836 55.3477 88.0729 54.8001 89.343C54.4313 88.7131 54.0681 88.1449 53.7528 87.5471C52.1254 84.4639 51.1693 81.0915 50.8726 77.4476C50.7973 76.5235 50.8336 75.5724 50.8139 74.6363C50.8099 74.4094 50.7889 74.1869 50.7757 73.9607C50.8402 73.1831 50.9045 72.407 50.969 71.6294L50.9673 71.631Z" fill="white"/>
<path d="M85.0392 40.4643C85.3939 40.4939 85.7486 40.5236 86.1607 40.5578C86.1157 41.8701 86.2229 43.2174 85.6589 44.5205C85.3354 45.2685 84.6687 45.9405 84.0819 46.5835C83.4766 47.2477 82.7837 47.8324 82.2048 48.3808C79.0235 46.659 75.8876 44.9593 72.6439 43.203C74.4505 42.623 76.2375 42.0037 78.0372 41.4895C79.1906 41.1609 80.3649 40.9851 81.5312 40.7404C82.7 40.6484 83.8704 40.5563 85.0392 40.4643Z" fill="white"/>
<path d="M87.479 56.8665C88.6946 58.3189 89.8852 59.7415 90.9044 60.9594C90.1487 61.8248 89.4934 62.561 88.8536 63.3112C87.2894 65.1475 86.1862 67.2156 85.4319 69.3835C84.0214 73.4344 82.7261 77.5081 81.401 81.575C79.633 87.0053 77.9262 92.4488 75.5235 97.7427C75.1942 98.47 74.7894 99.1729 74.4571 99.8988C74.3031 100.235 74.1161 100.309 73.8065 100.285C71.2878 100.086 68.882 99.5711 66.6053 98.7263C63.0208 97.3952 59.9456 95.3666 57.3848 92.6507C57.1599 92.4124 57.0709 92.2028 57.1576 91.8173C57.9059 88.5107 59.4837 85.4661 61.3837 82.5324C64.7062 77.3994 68.8264 72.8929 73.2579 68.6466C77.5936 64.4927 82.2004 60.6795 87.0419 57.1705C87.1422 57.0975 87.245 57.0303 87.4772 56.8697L87.479 56.8665Z" fill="white"/>
<path d="M77.3456 100.474C77.8428 99.4083 78.2668 98.5479 78.6508 97.674C80.9834 92.3644 82.6569 86.9189 84.4306 81.4928C85.7784 77.3726 87.1399 73.2528 88.5999 69.1541C89.2991 67.192 90.4 65.3709 92.0986 63.9315C92.1786 63.8646 92.2613 63.8021 92.4289 63.6692C92.7164 64.2707 93.0097 64.8398 93.2663 65.4286C95.1865 69.8399 96.3003 74.5723 96.9091 79.511C97.4077 83.5616 97.562 87.6757 97.3978 91.8557C97.3815 92.2902 97.2336 92.5533 96.8551 92.8467C92.7077 96.0678 88.1996 98.3054 83.3259 99.454C81.3896 99.9108 79.4355 100.125 77.3486 100.474L77.3456 100.474Z" fill="white"/>
<path d="M95.2784 62.1497C98.4632 60.8599 101.403 60.4574 103.979 62.3601C106.25 64.0385 108.064 66.1437 109.868 68.2754C110.436 68.9486 110.636 69.616 110.46 70.6039C109.205 77.6751 105.952 83.9478 100.659 89.4373C100.633 89.4636 100.591 89.476 100.481 89.5347C100.519 79.7993 99.3581 70.487 95.28 62.1495L95.2784 62.1497Z" fill="white"/>
<path d="M54.5347 60.4122C55.7714 57.9625 57.2315 55.7875 58.9201 53.752C61.6137 50.5045 64.7479 47.7706 68.3345 45.5933C68.5393 45.4696 68.8523 45.342 69.022 45.4044C72.7083 46.7351 76.1275 48.5018 79.4381 50.624C78.5648 51.2214 77.7527 51.7958 76.9218 52.3398C73.7862 54.3937 70.4315 55.6257 66.9555 56.487C63.3212 57.388 59.6859 58.3376 56.1261 59.7523C55.6372 59.9468 55.1518 60.1562 54.5347 60.4122Z" fill="white"/>
<path d="M110.733 64.2736C110.4 63.9044 110.076 63.527 109.735 63.1661C107.97 61.3024 106.088 59.5859 103.62 58.5759C101.575 57.7386 99.375 57.8951 97.0965 58.5561C96.131 58.8366 95.1768 59.1995 94.213 59.495C94.0446 59.5461 93.7714 59.5237 93.686 59.4168C92.5186 57.9515 91.3757 56.4661 90.2319 54.9913C93.8235 52.4244 97.6915 50.3917 101.933 49.4428C102.732 49.2633 103.532 49.0913 104.329 48.8862C104.661 48.801 104.855 48.869 105.052 49.108C108.474 53.2285 110.419 58.1059 110.778 63.802C110.787 63.933 110.805 64.0619 110.819 64.1926C110.791 64.219 110.761 64.2471 110.733 64.2736Z" fill="white"/>
<path d="M89.1889 40.7362C94.2263 41.3894 98.5365 43.2436 102.361 46.422C97.0845 47.4296 92.4881 49.9802 88.0689 53.0879C86.8505 52.0916 85.6648 51.1231 84.5374 50.2014C85.7442 48.772 87.0915 47.4253 88.1135 45.8968C89.1738 44.3092 89.0394 42.502 89.1889 40.7362Z" fill="white"/>
</g>
</g>
<defs>
<filter id="filter0_d_611_2659" x="0.583008" y="0.506348" width="143.38" height="137.992" filterUnits="userSpaceOnUse" color-interpolation-filters="sRGB">
<feFlood flood-opacity="0" result="BackgroundImageFix"/>
<feColorMatrix in="SourceAlpha" type="matrix" values="0 0 0 0 0 0 0 0 0 0 0 0 0 0 0 0 0 0 127 0" result="hardAlpha"/>
<feOffset dx="-11" dy="-1"/>
<feGaussianBlur stdDeviation="3"/>
<feComposite in2="hardAlpha" operator="out"/>
<feColorMatrix type="matrix" values="0 0 0 0 0 0 0 0 0 0 0 0 0 0 0 0 0 0 0.25 0"/>
<feBlend mode="normal" in2="BackgroundImageFix" result="effect1_dropShadow_611_2659"/>
<feBlend mode="normal" in="SourceGraphic" in2="effect1_dropShadow_611_2659" result="shape"/>
</filter>
<filter id="filter1_b_611_2659" x="-22.417" y="-32.4937" width="206.38" height="205.992" filterUnits="userSpaceOnUse" color-interpolation-filters="sRGB">
<feFlood flood-opacity="0" result="BackgroundImageFix"/>
<feGaussianBlur in="BackgroundImageFix" stdDeviation="20"/>
<feComposite in2="SourceAlpha" operator="in" result="effect1_backgroundBlur_611_2659"/>
<feBlend mode="normal" in="SourceGraphic" in2="effect1_backgroundBlur_611_2659" result="shape"/>
</filter>
<linearGradient id="paint0_linear_611_2659" x1="12" y1="-1.87826e-06" x2="141.025" y2="18.6766" gradientUnits="userSpaceOnUse">
<stop stop-color="#6E7A8A"/>
<stop offset="1" stop-color="#6E7A8A" stop-opacity="0"/>
</linearGradient>
<linearGradient id="paint1_linear_611_2659" x1="67.7143" y1="-6" x2="77.7384" y2="119.301" gradientUnits="userSpaceOnUse">
<stop stop-color="#405E81"/>
<stop offset="1" stop-color="#0B1726"/>
</linearGradient>
<clipPath id="clip0_611_2659">
<rect width="60" height="60" fill="white" transform="matrix(0.996917 -0.0784591 -0.0826343 0.99658 53.3447 42.9587)"/>
</clipPath>
</defs>
</svg>
