<svg viewBox="0 0 153 153" fill="none" xmlns="http://www.w3.org/2000/svg">
<g filter="url(#filter0_d_611_2802)">
<g filter="url(#filter1_b_611_2802)">
<rect width="120" height="120" rx="20" transform="matrix(0.996917 -0.0784591 -0.0826343 0.99658 15.916 28.415)" fill="url(#paint0_linear_611_2802)"/>
<rect x="0.457142" y="0.45906" width="119" height="119" rx="19.5" transform="matrix(0.996917 -0.0784591 -0.0826343 0.99658 15.9554 28.4525)" stroke="url(#paint1_linear_611_2802)"/>
</g>
<g clip-path="url(#clip0_611_2802)">
<path d="M30.2846 94.0172C30.5397 93.1333 30.7526 92.2405 31.0579 91.3668C34.075 82.7145 43.0225 77.0528 51.4197 78.4713C51.5647 78.4965 51.7156 78.4988 52.0035 78.5249C51.8255 77.9373 51.6762 77.4226 51.5121 76.9131C51.2416 76.0625 50.9246 75.2297 50.6984 74.3613C50.5556 73.8176 50.2711 73.653 49.689 73.7517C49.1007 73.8508 48.5062 73.8773 47.9206 73.8949C46.5999 73.9358 45.7075 73.0223 45.8155 71.7698C45.9263 70.4826 47.0192 69.421 48.389 69.305C50.929 69.0929 53.4674 68.8993 56.006 68.7035C57.4984 68.5881 58.4338 69.3763 58.3744 70.6839C58.3152 72.0138 57.3312 73.0181 55.8328 73.2803C55.7333 73.2983 55.6332 73.3224 55.4481 73.3634C55.7176 74.1776 55.9531 74.9579 56.2439 75.7115C56.2979 75.8495 56.5734 75.9498 56.7585 75.9352C62.9124 75.4651 69.0653 74.9829 75.2223 74.476C75.4628 74.457 75.8135 74.218 75.9605 73.9971C77.5036 71.6683 79.0252 69.329 80.5174 66.9736C80.6608 66.7469 80.6765 66.3107 80.552 66.1132C79.6515 64.7063 78.3036 63.9425 76.5049 63.8848C76.2015 63.8742 75.8936 63.8923 75.5929 63.8733C74.3317 63.7876 73.5878 62.8319 73.7847 61.5663C73.9756 60.348 75.0677 59.3698 76.3723 59.3016C79.9661 59.1143 82.6846 60.4187 84.547 63.1564C85.4135 64.4317 85.7789 65.9355 85.9888 67.5187C86.3809 70.4493 87.2404 73.1886 88.2455 75.8698C88.2689 75.933 88.3261 75.9813 88.2966 75.943C90.0204 75.5248 91.6757 74.9718 93.3242 74.7465C101.685 73.5986 108.664 79.1431 108.975 87.0883C109.313 95.7002 103.087 103.882 94.493 106.121C84.1306 108.821 75.3595 101.271 76.8984 90.9381C77.5754 86.3948 79.7893 82.4786 83.496 79.2559C83.989 78.8268 84.052 78.5353 83.8698 78.0232C83.3028 76.4133 82.8039 74.7695 82.2793 73.14C82.2243 72.9655 82.1649 72.7954 82.0684 72.5062C81.8266 72.8606 81.6599 73.0973 81.5008 73.3416C77.1928 79.9735 72.8714 86.5963 68.5909 93.2424C67.8385 94.4093 66.9451 95.0101 65.6468 95.0513C64.451 95.0885 63.2405 95.2285 61.9885 95.3271C61.8057 95.9309 61.6454 96.5086 61.453 97.0806C59.0259 104.306 51.7693 110.414 43.3989 110.323C35.9205 110.239 30.4268 104.791 30.1282 97.5784C30.1221 97.4061 30.0638 97.2461 30.0306 97.08C30.1153 96.0591 30.1999 95.0381 30.2846 94.0172ZM57.1904 95.7026C56.9046 95.7251 56.6312 95.7467 56.3578 95.7682C53.0253 96.0304 49.6906 96.2949 46.3583 96.5552C44.7999 96.6778 43.8244 95.8318 43.9331 94.4716C44.0418 93.1113 45.1743 92.0892 46.7246 91.9652C50.0574 91.6988 53.3916 91.4405 56.7241 91.1782C57.0016 91.1564 57.2791 91.1345 57.5649 91.1121C57.3586 87.1464 53.5763 82.1675 46.7891 82.9354C40.6369 83.631 35.3446 88.9806 34.7883 95.0246C34.2208 101.204 38.5612 105.88 44.7296 105.704C51.3239 105.514 56.1958 100.062 57.188 95.7069L57.1904 95.7026ZM85.7852 82.9295C81.7517 86.3995 79.6626 93.1698 83.0826 98.0837C86.355 102.784 93.2369 103.386 98.615 99.465C104.015 95.5278 105.942 88.5364 102.978 83.6273C100.476 79.4805 93.9057 77.7333 90.0613 80.2535C90.6743 81.4817 91.2548 82.7328 91.9085 83.9375C92.837 85.647 93.8108 87.3265 94.7825 89.0082C95.47 90.2001 95.1492 91.6054 93.9744 92.4235C92.7802 93.2533 91.4796 93.0264 90.7257 91.8479C90.4833 91.4706 90.2433 91.0891 90.0267 90.6955C88.6127 88.1177 87.207 85.5372 85.7813 82.9278L85.7852 82.9295ZM57.626 80.4728C58.0177 81.1432 58.2386 81.7315 58.6343 82.1557C60.201 83.8292 61.3325 85.7747 61.9114 88.0788C62.1253 88.9238 62.2356 89.8095 62.4046 90.7271C63.1057 90.6719 63.8255 90.5868 64.5357 90.5695C65.0493 90.5576 65.3624 90.3785 65.6769 89.8862C67.7818 86.5944 69.924 83.3221 72.0527 80.0406C72.1955 79.82 72.3209 79.5886 72.4896 79.303L57.6281 80.4726L57.626 80.4728Z" fill="white"/>
</g>
</g>
<defs>
<filter id="filter0_d_611_2802" x="0.583008" y="0.506348" width="152.38" height="151.992" filterUnits="userSpaceOnUse" color-interpolation-filters="sRGB">
<feFlood flood-opacity="0" result="BackgroundImageFix"/>
<feColorMatrix in="SourceAlpha" type="matrix" values="0 0 0 0 0 0 0 0 0 0 0 0 0 0 0 0 0 0 127 0" result="hardAlpha"/>
<feOffset dx="6" dy="-7"/>
<feGaussianBlur stdDeviation="6.5"/>
<feComposite in2="hardAlpha" operator="out"/>
<feColorMatrix type="matrix" values="0 0 0 0 0 0 0 0 0 0 0 0 0 0 0 0 0 0 0.25 0"/>
<feBlend mode="normal" in2="BackgroundImageFix" result="effect1_dropShadow_611_2802"/>
<feBlend mode="normal" in="SourceGraphic" in2="effect1_dropShadow_611_2802" result="shape"/>
</filter>
<filter id="filter1_b_611_2802" x="-32.417" y="-19.4937" width="206.38" height="205.992" filterUnits="userSpaceOnUse" color-interpolation-filters="sRGB">
<feFlood flood-opacity="0" result="BackgroundImageFix"/>
<feGaussianBlur in="BackgroundImageFix" stdDeviation="20"/>
<feComposite in2="SourceAlpha" operator="in" result="effect1_backgroundBlur_611_2802"/>
<feBlend mode="normal" in="SourceGraphic" in2="effect1_backgroundBlur_611_2802" result="shape"/>
</filter>
<linearGradient id="paint0_linear_611_2802" x1="12" y1="-1.87826e-06" x2="141.025" y2="18.6766" gradientUnits="userSpaceOnUse">
<stop stop-color="#6E7A8A"/>
<stop offset="1" stop-color="#6E7A8A" stop-opacity="0"/>
</linearGradient>
<linearGradient id="paint1_linear_611_2802" x1="67.7143" y1="-6" x2="77.7384" y2="119.301" gradientUnits="userSpaceOnUse">
<stop stop-color="#405E81"/>
<stop offset="1" stop-color="#0B1726"/>
</linearGradient>
<clipPath id="clip0_611_2802">
<rect width="79" height="49" fill="white" transform="matrix(0.996917 -0.0784591 -0.0826343 0.99658 32.8794 62.7227)"/>
</clipPath>
</defs>
</svg>
