<svg width="117" height="118" viewBox="0 0 117 118" fill="none" xmlns="http://www.w3.org/2000/svg">
<g opacity="0.5" filter="url(#filter0_d_743_1389)">
<g filter="url(#filter1_b_743_1389)">
<rect width="86.9521" height="86.9123" rx="20" transform="matrix(0.996914 -0.0784234 -0.0826718 0.996583 12.7305 25.9539)" fill="url(#paint0_linear_743_1389)"/>
<rect x="0.457121" y="0.45908" width="85.9521" height="85.9123" rx="19.5" transform="matrix(0.996914 -0.0784234 -0.0826718 0.996583 12.7698 25.9913)" stroke="url(#paint1_linear_743_1389)"/>
</g>
<g clip-path="url(#clip0_743_1389)">
<path d="M32.9973 69.1095C33.0813 68.7245 33.1606 68.339 33.2495 67.9546C33.6875 66.0611 34.4861 64.2928 35.7942 62.7034C35.8543 62.6302 35.9219 62.5611 36.0345 62.4374C36.0973 62.6583 36.1428 62.843 36.1995 63.0219C36.6506 64.4535 36.9636 65.9664 37.5821 67.3009C39.4409 71.3117 42.673 73.7039 47.2224 74.3738C49.7403 74.7451 51.9598 75.5936 53.745 77.2435C55.2601 78.6435 56.2594 80.3939 56.79 82.4631C57.0644 83.5331 57.3297 84.6077 57.6011 85.6906C56.1765 86.7051 54.6676 87.3615 53.0684 87.7209C50.1672 88.373 47.4476 88.116 44.8912 87.241C39.5767 85.4219 35.9576 81.8257 33.9053 76.6545C33.2439 74.9875 32.9098 73.1925 32.8881 71.2995C32.886 71.1616 32.8623 71.0284 32.8485 70.8924C32.8986 70.2997 32.948 69.7041 32.9973 69.1095Z" fill="white"/>
<path d="M64.2423 47.5387C64.6327 47.5601 65.0245 47.5746 65.4133 47.6029C67.1174 47.7255 68.667 48.1865 70.0052 49.0995C70.1807 49.2189 70.3443 49.3537 70.5687 49.5242C69.9998 49.7582 69.4961 49.9745 68.9872 50.1718C67.0713 50.9143 65.2137 51.7931 63.5215 53.0874C61.154 54.8972 59.3196 57.1138 57.9896 59.7242C57.9101 59.88 57.8286 60.0351 57.7217 60.2414C56.3877 59.1727 54.9789 58.2604 53.4323 57.5434C51.8829 56.8246 50.241 56.313 48.4529 56.0387C48.525 55.9374 48.5625 55.8698 48.6134 55.8146C51.679 52.4587 55.2367 49.9336 59.407 48.4887C60.3447 48.1639 61.3136 47.9989 62.2671 47.7617C62.4082 47.7264 62.5489 47.6951 62.6897 47.6618C63.2069 47.6211 63.7251 47.5803 64.2422 47.5396L64.2423 47.5387Z" fill="white"/>
<path d="M59.6467 83.8375C59.402 82.8983 59.1988 82.006 58.9374 81.1396C57.514 76.4208 54.3421 73.5229 49.53 72.365C48.4638 72.1082 47.3263 72.024 46.287 71.711C42.4208 70.5482 40.0525 67.9065 38.9777 64.0386C38.6854 62.9854 38.4232 61.9202 38.137 60.8646C38.0859 60.6766 38.0782 60.5594 38.2991 60.4117C40.5892 58.8831 43.0137 58.2261 45.524 58.2235C49.6705 58.2195 53.0987 59.691 56.0564 62.0729C58.9381 64.3933 61.0187 67.3365 62.1078 71.0103C62.7605 73.2126 62.9596 75.5289 62.4846 77.9735C62.1035 79.9368 61.3197 81.7841 59.9803 83.4474C59.8856 83.5648 59.7836 83.6771 59.6458 83.8366L59.6467 83.8375Z" fill="white"/>
<path d="M64.8991 72.7075C64.6461 70.9833 64.2317 69.4706 63.6321 68.0352C62.6804 65.7579 61.3492 63.7586 59.6804 62.0107C59.5036 61.8248 59.4671 61.6713 59.594 61.3862C61.4033 57.3174 64.3726 54.4574 68.4634 52.761C69.5795 52.2986 70.7016 51.858 71.8171 51.3919C72.0332 51.3015 72.1361 51.3185 72.2405 51.5033C73.4212 53.5947 73.71 55.9589 73.3028 58.5284C72.58 63.087 70.2711 67.0321 67.0072 70.5909C66.3605 71.2962 65.6563 71.95 64.8981 72.7075L64.8991 72.7075Z" fill="white"/>
</g>
</g>
<defs>
<filter id="filter0_d_743_1389" x="0.129395" y="0.640625" width="116.701" height="116.423" filterUnits="userSpaceOnUse" color-interpolation-filters="sRGB">
<feFlood flood-opacity="0" result="BackgroundImageFix"/>
<feColorMatrix in="SourceAlpha" type="matrix" values="0 0 0 0 0 0 0 0 0 0 0 0 0 0 0 0 0 0 127 0" result="hardAlpha"/>
<feOffset dx="6" dy="-7"/>
<feGaussianBlur stdDeviation="6.5"/>
<feComposite in2="hardAlpha" operator="out"/>
<feColorMatrix type="matrix" values="0 0 0 0 0 0 0 0 0 0 0 0 0 0 0 0 0 0 0.25 0"/>
<feBlend mode="normal" in2="BackgroundImageFix" result="effect1_dropShadow_743_1389"/>
<feBlend mode="normal" in="SourceGraphic" in2="effect1_dropShadow_743_1389" result="shape"/>
</filter>
<filter id="filter1_b_743_1389" x="-32.8706" y="-19.3594" width="170.701" height="170.423" filterUnits="userSpaceOnUse" color-interpolation-filters="sRGB">
<feFlood flood-opacity="0" result="BackgroundImageFix"/>
<feGaussianBlur in="BackgroundImageFix" stdDeviation="20"/>
<feComposite in2="SourceAlpha" operator="in" result="effect1_backgroundBlur_743_1389"/>
<feBlend mode="normal" in="SourceGraphic" in2="effect1_backgroundBlur_743_1389" result="shape"/>
</filter>
<linearGradient id="paint0_linear_743_1389" x1="8.69521" y1="-1.36037e-06" x2="102.185" y2="13.539" gradientUnits="userSpaceOnUse">
<stop stop-color="#6E7A8A"/>
<stop offset="1" stop-color="#6E7A8A" stop-opacity="0"/>
</linearGradient>
<linearGradient id="paint1_linear_743_1389" x1="49.0658" y1="-4.34562" x2="56.3227" y2="86.4065" gradientUnits="userSpaceOnUse">
<stop stop-color="#405E81"/>
<stop offset="1" stop-color="#0B1726"/>
</linearGradient>
<clipPath id="clip0_743_1389">
<rect width="39.8529" height="39.8529" fill="white" transform="matrix(0.996917 -0.0784591 -0.0826343 0.99658 34.5923 49.8721)"/>
</clipPath>
</defs>
</svg>
