<svg width="153" height="153" viewBox="0 0 153 153" fill="none" xmlns="http://www.w3.org/2000/svg">
<g filter="url(#filter0_d_611_2694)">
<g filter="url(#filter1_b_611_2694)">
<rect width="120" height="120" rx="20" transform="matrix(0.996917 -0.0784591 -0.0826343 0.99658 15.916 28.415)" fill="url(#paint0_linear_611_2694)"/>
<rect x="0.457142" y="0.45906" width="119" height="119" rx="19.5" transform="matrix(0.996917 -0.0784591 -0.0826343 0.99658 15.9554 28.4525)" stroke="url(#paint1_linear_611_2694)"/>
</g>
<g clip-path="url(#clip0_611_2694)">
<path d="M43.8858 85.2623C44.0019 84.731 44.1113 84.1988 44.2339 83.6684C44.8385 81.0553 45.9405 78.6148 47.7458 76.4214C47.8288 76.3202 47.922 76.225 48.0775 76.0543C48.1641 76.3591 48.227 76.6139 48.3051 76.8609C48.9277 78.8366 49.3597 80.9245 50.2133 82.7662C52.7786 88.3014 57.2392 91.6029 63.5176 92.5274C66.9925 93.0398 70.0556 94.2107 72.5192 96.4878C74.6102 98.4199 75.9893 100.836 76.7215 103.691C77.1003 105.168 77.4664 106.651 77.841 108.145C75.8749 109.546 73.7925 110.451 71.5855 110.947C67.5816 111.847 63.8283 111.493 60.3004 110.285C52.9659 107.775 47.9714 102.811 45.139 95.6748C44.2262 93.3743 43.7652 90.897 43.7352 88.2845C43.7323 88.0943 43.6996 87.9104 43.6805 87.7227C43.7496 86.9047 43.8178 86.0828 43.8858 85.2623Z" fill="white"/>
<path d="M87.0064 55.4927C87.5451 55.5222 88.0859 55.5423 88.6225 55.5813C90.9743 55.7505 93.1128 56.3868 94.9596 57.6467C95.2019 57.8115 95.4277 57.9975 95.7374 58.2329C94.9522 58.5558 94.257 58.8543 93.5547 59.1267C90.9106 60.1513 88.3469 61.3641 86.0116 63.1503C82.7443 65.648 80.2127 68.7071 78.3773 72.3096C78.2674 72.5247 78.1551 72.7387 78.0075 73.0234C76.1665 71.5485 74.2223 70.2895 72.0878 69.3C69.9495 68.308 67.6835 67.6019 65.2158 67.2233C65.3154 67.0836 65.3671 66.9903 65.4374 66.9142C69.6681 62.2827 74.578 58.7979 80.3334 56.8038C81.6274 56.3556 82.9645 56.1278 84.2805 55.8005C84.4752 55.7518 84.6694 55.7086 84.8638 55.6626C85.5775 55.6065 86.2926 55.5502 87.0063 55.494L87.0064 55.4927Z" fill="white"/>
<path d="M80.6641 105.588C80.3264 104.292 80.046 103.061 79.6853 101.865C77.7208 95.3525 73.3434 91.3532 66.7023 89.7552C65.2309 89.4008 63.6611 89.2846 62.2268 88.8527C56.8911 87.2479 53.6227 83.6022 52.1393 78.2642C51.736 76.8107 51.3741 75.3406 50.9791 73.8838C50.9086 73.6243 50.8981 73.4626 51.2029 73.2588C54.3634 71.1492 57.7094 70.2424 61.1738 70.2389C66.8962 70.2334 71.6274 72.2641 75.7093 75.5513C79.6863 78.7536 82.5577 82.8155 84.0606 87.8856C84.9615 90.925 85.2362 94.1216 84.5806 97.4953C84.0547 100.205 82.973 102.754 81.1246 105.05C80.9939 105.212 80.8531 105.367 80.6629 105.587L80.6641 105.588Z" fill="white"/>
<path d="M87.9131 90.2279C87.5639 87.8483 86.9919 85.7607 86.1646 83.7798C84.851 80.637 83.0139 77.8777 80.7108 75.4655C80.4668 75.2089 80.4164 74.9971 80.5917 74.6037C83.0886 68.9884 87.1865 65.0414 92.832 62.7002C94.3724 62.0622 95.9209 61.4541 97.4604 60.8108C97.7587 60.6861 97.9007 60.7095 98.0448 60.9646C99.6741 63.8508 100.073 67.1136 99.5107 70.6598C98.5133 76.9509 95.3268 82.3954 90.8223 87.3068C89.9299 88.2802 88.9581 89.1826 87.9117 90.228L87.9131 90.2279Z" fill="white"/>
</g>
</g>
<defs>
<filter id="filter0_d_611_2694" x="0.583008" y="0.506348" width="152.38" height="151.992" filterUnits="userSpaceOnUse" color-interpolation-filters="sRGB">
<feFlood flood-opacity="0" result="BackgroundImageFix"/>
<feColorMatrix in="SourceAlpha" type="matrix" values="0 0 0 0 0 0 0 0 0 0 0 0 0 0 0 0 0 0 127 0" result="hardAlpha"/>
<feOffset dx="6" dy="-7"/>
<feGaussianBlur stdDeviation="6.5"/>
<feComposite in2="hardAlpha" operator="out"/>
<feColorMatrix type="matrix" values="0 0 0 0 0 0 0 0 0 0 0 0 0 0 0 0 0 0 0.25 0"/>
<feBlend mode="normal" in2="BackgroundImageFix" result="effect1_dropShadow_611_2694"/>
<feBlend mode="normal" in="SourceGraphic" in2="effect1_dropShadow_611_2694" result="shape"/>
</filter>
<filter id="filter1_b_611_2694" x="-32.417" y="-19.4937" width="206.38" height="205.992" filterUnits="userSpaceOnUse" color-interpolation-filters="sRGB">
<feFlood flood-opacity="0" result="BackgroundImageFix"/>
<feGaussianBlur in="BackgroundImageFix" stdDeviation="20"/>
<feComposite in2="SourceAlpha" operator="in" result="effect1_backgroundBlur_611_2694"/>
<feBlend mode="normal" in="SourceGraphic" in2="effect1_backgroundBlur_611_2694" result="shape"/>
</filter>
<linearGradient id="paint0_linear_611_2694" x1="12" y1="-1.87826e-06" x2="141.025" y2="18.6766" gradientUnits="userSpaceOnUse">
<stop stop-color="#6E7A8A"/>
<stop offset="1" stop-color="#6E7A8A" stop-opacity="0"/>
</linearGradient>
<linearGradient id="paint1_linear_611_2694" x1="67.7143" y1="-6" x2="77.7384" y2="119.301" gradientUnits="userSpaceOnUse">
<stop stop-color="#405E81"/>
<stop offset="1" stop-color="#0B1726"/>
</linearGradient>
<clipPath id="clip0_611_2694">
<rect width="55" height="55" fill="white" transform="matrix(0.996917 -0.0784591 -0.0826343 0.99658 46.0874 58.7131)"/>
</clipPath>
</defs>
</svg>
