<svg width="205" height="37" viewBox="0 0 205 37" fill="none" xmlns="http://www.w3.org/2000/svg">
<g clip-path="url(#clip0_65_4368)">
<mask id="mask0_65_4368" style="mask-type:luminance" maskUnits="userSpaceOnUse" x="0" y="0" width="205" height="37">
<path d="M204.26 0H0V36.06H204.26V0Z" fill="white"/>
</mask>
<g mask="url(#mask0_65_4368)">
<path d="M139.07 36.06H132.95L130.16 35.14L127.39 36.06H121.25C116.21 36.06 112.12 31.97 112.12 26.93V9.13C112.13 4.09 116.22 0 121.26 0H139.07C144.11 0 148.2 4.08 148.2 9.12V26.93C148.2 31.97 144.11 36.06 139.07 36.06Z" fill="#2D3847"/>
<path d="M127.38 14.1102V18.0302H122.86V23.1802H127.38V36.0602H132.95V23.1802H137.1L137.89 18.0302H132.95V14.6902C132.82 13.2702 133.87 12.0202 135.29 11.9002C135.48 11.8802 135.67 11.8902 135.85 11.9102H138.1V7.53018C136.78 7.32018 135.45 7.20018 134.11 7.18018C130.04 7.18018 127.38 9.64018 127.38 14.1102Z" fill="#F6F6F6"/>
</g>
</g>
<defs>
<clipPath id="clip0_65_4368">
<rect width="204.26" height="36.07" fill="white"/>
</clipPath>
</defs>
</svg>
