<svg viewBox="0 0 153 153" fill="none" xmlns="http://www.w3.org/2000/svg">
<g filter="url(#filter0_d_611_2726)">
<g filter="url(#filter1_b_611_2726)">
<rect width="120" height="120" rx="20" transform="matrix(0.996917 -0.0784591 -0.0826343 0.99658 15.916 28.415)" fill="url(#paint0_linear_611_2726)"/>
<rect x="0.457142" y="0.45906" width="119" height="119" rx="19.5" transform="matrix(0.996917 -0.0784591 -0.0826343 0.99658 15.9554 28.4525)" stroke="url(#paint1_linear_611_2726)"/>
</g>
<g clip-path="url(#clip0_611_2726)">
<path d="M106.316 49.0228C105.477 53.5471 104.645 58.0725 103.788 62.5966C103.743 62.832 103.532 63.1108 103.331 63.2879C96.4876 69.3014 89.6367 75.3072 82.7859 81.3129C76.1579 87.1229 69.5284 92.9314 62.9004 98.7415C62.7319 98.8892 62.5692 99.0482 62.3908 99.2151C63.664 100.491 64.9201 101.752 66.1469 102.981C65.1474 103.974 64.2122 104.901 63.35 105.757C58.7358 101.118 54.0703 96.4267 49.4296 91.7623C50.2626 90.9338 51.1961 90.0067 52.1408 89.0669C53.3512 90.2908 54.5988 91.5521 55.893 92.8602C56.1699 92.5594 56.3668 92.3523 56.5558 92.1392C68.3611 78.7696 80.1646 65.4002 91.9619 52.0262C92.2715 51.6758 92.5774 51.5106 93.0156 51.4324C97.1392 50.7063 101.262 49.9516 105.384 49.2003C105.483 49.1825 105.581 49.116 105.68 49.0729C105.891 49.0562 106.103 49.0396 106.312 49.0231L106.316 49.0228Z" fill="white"/>
<path d="M42.1485 54.0728C43.511 54.1302 44.8723 54.2029 46.238 54.2433C49.1036 54.3253 51.9744 54.3851 54.8395 54.4721C55.0423 54.478 55.2774 54.5805 55.398 54.7256C60.1522 60.4129 64.8937 66.1112 69.6353 71.8079C69.6581 71.8363 69.6663 71.8794 69.7026 71.969C66.4694 75.6314 63.2194 79.3136 59.9178 83.052C59.0067 82.2902 58.1192 81.5484 57.2353 80.8029C52.2327 76.5922 47.2283 72.3833 42.2424 68.1544C42.0085 67.956 41.8308 67.5869 41.8208 67.2616C41.7066 63.1905 41.6315 59.1129 41.5411 55.0364C41.5391 54.9391 41.4912 54.8488 41.4637 54.7552L41.5161 54.1226L42.1485 54.0728Z" fill="white"/>
<path d="M36.6235 113.126C36.807 112.958 36.9968 112.797 37.1725 112.622C41.4845 108.327 45.7965 104.032 50.1052 99.7351C50.2829 99.5581 50.4433 99.3657 50.5634 99.2335C52.3481 101.027 54.0924 102.781 55.8678 104.565C55.7923 104.645 55.6477 104.809 55.4937 104.964C51.1357 109.308 46.7712 113.65 42.4224 118.003C42.0451 118.381 41.725 118.534 41.2356 118.459C38.7205 118.081 37.2281 116.652 36.6969 114.205C36.6642 114.053 36.6124 113.908 36.5709 113.76C36.5884 113.549 36.606 113.337 36.6234 113.127L36.6235 113.126Z" fill="white"/>
<path d="M83.3333 102.365C85.4078 100.297 87.4713 98.2428 89.5533 96.1666C89.6623 96.2706 89.8044 96.4006 89.9394 96.5345C93.6174 100.229 97.2881 103.932 100.979 107.612C101.316 107.949 101.416 108.258 101.266 108.793C100.516 111.46 98.2328 113.668 95.565 114.219C95.3685 114.26 95.0955 114.209 94.9713 114.086C91.0917 110.208 87.2268 106.316 83.3617 102.426C83.3369 102.401 83.3303 102.36 83.3333 102.365Z" fill="white"/>
<path d="M75.6189 104.842C74.8751 104.089 74.0894 103.294 73.3037 102.498C74.7187 101.093 76.1977 99.6239 77.7519 98.0799C76.2135 96.7793 74.7692 95.5603 73.2732 94.2967C76.1878 91.7416 79.0753 89.2087 81.9991 86.6445C83.0765 87.9326 84.131 89.194 85.1916 90.4616C86.6891 88.9523 88.1625 87.4702 89.5922 86.0301C90.4741 86.9202 91.2724 87.7262 92.0288 88.4901C86.5851 93.9145 81.0846 99.3955 75.6188 104.844L75.6189 104.842Z" fill="white"/>
</g>
</g>
<defs>
<filter id="filter0_d_611_2726" x="0.583008" y="0.506348" width="152.38" height="151.992" filterUnits="userSpaceOnUse" color-interpolation-filters="sRGB">
<feFlood flood-opacity="0" result="BackgroundImageFix"/>
<feColorMatrix in="SourceAlpha" type="matrix" values="0 0 0 0 0 0 0 0 0 0 0 0 0 0 0 0 0 0 127 0" result="hardAlpha"/>
<feOffset dx="6" dy="-7"/>
<feGaussianBlur stdDeviation="6.5"/>
<feComposite in2="hardAlpha" operator="out"/>
<feColorMatrix type="matrix" values="0 0 0 0 0 0 0 0 0 0 0 0 0 0 0 0 0 0 0.25 0"/>
<feBlend mode="normal" in2="BackgroundImageFix" result="effect1_dropShadow_611_2726"/>
<feBlend mode="normal" in="SourceGraphic" in2="effect1_dropShadow_611_2726" result="shape"/>
</filter>
<filter id="filter1_b_611_2726" x="-32.417" y="-19.4937" width="206.38" height="205.992" filterUnits="userSpaceOnUse" color-interpolation-filters="sRGB">
<feFlood flood-opacity="0" result="BackgroundImageFix"/>
<feGaussianBlur in="BackgroundImageFix" stdDeviation="20"/>
<feComposite in2="SourceAlpha" operator="in" result="effect1_backgroundBlur_611_2726"/>
<feBlend mode="normal" in="SourceGraphic" in2="effect1_backgroundBlur_611_2726" result="shape"/>
</filter>
<linearGradient id="paint0_linear_611_2726" x1="12" y1="-1.87826e-06" x2="141.025" y2="18.6766" gradientUnits="userSpaceOnUse">
<stop stop-color="#6E7A8A"/>
<stop offset="1" stop-color="#6E7A8A" stop-opacity="0"/>
</linearGradient>
<linearGradient id="paint1_linear_611_2726" x1="67.7143" y1="-6" x2="77.7384" y2="119.301" gradientUnits="userSpaceOnUse">
<stop stop-color="#405E81"/>
<stop offset="1" stop-color="#0B1726"/>
</linearGradient>
<clipPath id="clip0_611_2726">
<rect width="65" height="65" fill="white" transform="matrix(0.996917 -0.0784591 -0.0826343 0.99658 41.5161 54.1226)"/>
</clipPath>
</defs>
</svg>
