<svg width="118" height="118" viewBox="0 0 118 118" fill="none" xmlns="http://www.w3.org/2000/svg">
<g opacity="0.5" filter="url(#filter0_d_743_1381)">
<g filter="url(#filter1_b_743_1381)">
<rect width="86.9521" height="86.9123" rx="20" transform="matrix(0.996914 -0.0784234 -0.0826718 0.996583 12.9175 26.01)" fill="url(#paint0_linear_743_1381)"/>
<rect x="0.457121" y="0.45908" width="85.9521" height="85.9123" rx="19.5" transform="matrix(0.996914 -0.0784234 -0.0826718 0.996583 12.9568 26.0474)" stroke="url(#paint1_linear_743_1381)"/>
</g>
<g clip-path="url(#clip0_743_1381)">
<path d="M78.4209 42.961C77.8131 46.2393 77.2101 49.5184 76.589 52.7965C76.5566 52.9671 76.4035 53.1691 76.2578 53.2975C71.2993 57.6549 66.3352 62.0066 61.3711 66.3583C56.5685 70.5683 51.7647 74.7771 46.9621 78.9871C46.84 79.0941 46.7221 79.2093 46.5928 79.3303C47.5154 80.2549 48.4256 81.1684 49.3145 82.0592C48.5903 82.7786 47.9126 83.4505 47.2879 84.0707C43.9444 80.7089 40.5638 77.3098 37.2011 73.93C37.8047 73.3297 38.4812 72.6578 39.1657 71.9769C40.0428 72.8637 40.9468 73.7777 41.8845 74.7255C42.0852 74.5075 42.2278 74.3575 42.3648 74.203C50.9189 64.5155 59.4717 54.828 68.02 45.1373C68.2443 44.8834 68.466 44.7636 68.7835 44.707C71.7715 44.1808 74.7587 43.634 77.7456 43.0896C77.8173 43.0767 77.8883 43.0285 77.9602 42.9973C78.1134 42.9852 78.2665 42.9732 78.4184 42.9612L78.4209 42.961Z" fill="white"/>
<path d="M31.9255 46.6202C32.9128 46.6618 33.8992 46.7145 34.8887 46.7437C36.9651 46.8032 39.0453 46.8465 41.1214 46.9095C41.2683 46.9138 41.4387 46.9881 41.5261 47.0932C44.971 51.2142 48.4066 55.3432 51.8424 59.471C51.8589 59.4916 51.8649 59.5228 51.8911 59.5877C49.5484 62.2415 47.1935 64.9097 44.8011 67.6185C44.1409 67.0665 43.4978 66.529 42.8574 65.9888C39.2325 62.9377 35.6063 59.8879 31.9935 56.8237C31.8241 56.68 31.6953 56.4125 31.6881 56.1768C31.6053 53.2268 31.5509 50.2722 31.4854 47.3184C31.4839 47.2479 31.4492 47.1825 31.4293 47.1146L31.4673 46.6562L31.9255 46.6202Z" fill="white"/>
<path d="M27.9225 89.4098C28.0555 89.2885 28.193 89.1718 28.3203 89.0449C31.4448 85.9326 34.5692 82.8203 37.6913 79.707C37.82 79.5788 37.9363 79.4393 38.0233 79.3436C39.3165 80.6433 40.5804 81.9137 41.8669 83.2067C41.8122 83.2646 41.7074 83.3836 41.5958 83.4959C38.438 86.6437 35.2755 89.7894 32.1244 92.944C31.851 93.2175 31.619 93.3283 31.2644 93.2747C29.442 93.0004 28.3605 91.9653 27.9757 90.1922C27.9519 90.0821 27.9144 89.9766 27.8844 89.8694C27.8971 89.7162 27.9098 89.563 27.9224 89.411L27.9225 89.4098Z" fill="white"/>
<path d="M61.768 81.6123C63.2713 80.1143 64.7664 78.6256 66.2751 77.1212C66.354 77.1965 66.457 77.2907 66.5548 77.3877C69.2199 80.065 71.8797 82.7477 74.5542 85.4145C74.7981 85.6583 74.8707 85.8827 74.7619 86.27C74.2183 88.2026 72.5642 89.8025 70.6311 90.2018C70.4887 90.2313 70.2909 90.1945 70.2009 90.1054C67.3898 87.2959 64.5893 84.4758 61.7887 81.6569C61.7707 81.6388 61.7659 81.6088 61.768 81.6123Z" fill="white"/>
<path d="M56.1783 83.4074C55.6393 82.8617 55.07 82.2855 54.5007 81.7093C55.526 80.691 56.5977 79.6265 57.7238 78.5077C56.6092 77.5653 55.5626 76.682 54.4786 75.7664C56.5905 73.915 58.6828 72.0797 60.8014 70.2216C61.5821 71.155 62.3461 72.069 63.1147 72.9875C64.1998 71.8939 65.2674 70.8199 66.3033 69.7764C66.9424 70.4214 67.5208 71.0054 68.0689 71.559C64.1244 75.4895 60.1387 79.461 56.1782 83.4087L56.1783 83.4074Z" fill="white"/>
</g>
</g>
<defs>
<filter id="filter0_d_743_1381" x="0.316406" y="0.696777" width="116.701" height="116.423" filterUnits="userSpaceOnUse" color-interpolation-filters="sRGB">
<feFlood flood-opacity="0" result="BackgroundImageFix"/>
<feColorMatrix in="SourceAlpha" type="matrix" values="0 0 0 0 0 0 0 0 0 0 0 0 0 0 0 0 0 0 127 0" result="hardAlpha"/>
<feOffset dx="6" dy="-7"/>
<feGaussianBlur stdDeviation="6.5"/>
<feComposite in2="hardAlpha" operator="out"/>
<feColorMatrix type="matrix" values="0 0 0 0 0 0 0 0 0 0 0 0 0 0 0 0 0 0 0.25 0"/>
<feBlend mode="normal" in2="BackgroundImageFix" result="effect1_dropShadow_743_1381"/>
<feBlend mode="normal" in="SourceGraphic" in2="effect1_dropShadow_743_1381" result="shape"/>
</filter>
<filter id="filter1_b_743_1381" x="-32.6836" y="-19.3032" width="170.701" height="170.423" filterUnits="userSpaceOnUse" color-interpolation-filters="sRGB">
<feFlood flood-opacity="0" result="BackgroundImageFix"/>
<feGaussianBlur in="BackgroundImageFix" stdDeviation="20"/>
<feComposite in2="SourceAlpha" operator="in" result="effect1_backgroundBlur_743_1381"/>
<feBlend mode="normal" in="SourceGraphic" in2="effect1_backgroundBlur_743_1381" result="shape"/>
</filter>
<linearGradient id="paint0_linear_743_1381" x1="8.69521" y1="-1.36037e-06" x2="102.185" y2="13.539" gradientUnits="userSpaceOnUse">
<stop stop-color="#6E7A8A"/>
<stop offset="1" stop-color="#6E7A8A" stop-opacity="0"/>
</linearGradient>
<linearGradient id="paint1_linear_743_1381" x1="49.0658" y1="-4.34562" x2="56.3227" y2="86.4065" gradientUnits="userSpaceOnUse">
<stop stop-color="#405E81"/>
<stop offset="1" stop-color="#0B1726"/>
</linearGradient>
<clipPath id="clip0_743_1381">
<rect width="47.0989" height="47.0989" fill="white" transform="matrix(0.996917 -0.0784591 -0.0826343 0.99658 31.4673 46.6562)"/>
</clipPath>
</defs>
</svg>
