<svg width="146" height="139" viewBox="0 0 146 139" fill="none" xmlns="http://www.w3.org/2000/svg">
<g filter="url(#filter0_d_611_2755)">
<g filter="url(#filter1_b_611_2755)">
<rect width="120" height="120" rx="20" transform="matrix(0.996917 -0.0784591 -0.0826343 0.99658 25.916 15.415)" fill="url(#paint0_linear_611_2755)"/>
<rect x="0.457142" y="0.45906" width="119" height="119" rx="19.5" transform="matrix(0.996917 -0.0784591 -0.0826343 0.99658 25.9554 15.4525)" stroke="url(#paint1_linear_611_2755)"/>
</g>
<g clip-path="url(#clip0_611_2755)">
<path d="M114.561 93.0215C114.326 93.5702 114.139 94.1419 113.844 94.6633C113.183 95.8328 112.262 96.7221 110.935 96.8372C109.606 96.9525 108.745 96.2373 108.348 95.1208C108.069 94.3402 107.892 93.4289 107.987 92.5584C108.368 89.0283 108.828 85.492 109.34 81.9551C109.975 77.5598 110.69 73.1636 111.369 68.7684C111.392 68.6278 111.393 68.4854 111.411 68.2633C111.11 68.2728 110.813 68.2908 110.519 68.289C109.241 68.2828 108.404 67.564 108.522 66.27C108.977 61.2447 108.992 56.2398 110.102 51.1844C111.114 46.569 113.233 42.3096 116.27 38.3996C116.462 38.1532 116.901 37.9211 117.165 37.9395C117.344 37.9521 117.457 38.4023 117.531 38.6829C117.581 38.8694 117.51 39.1063 117.492 39.3212C116.848 47.0892 116.252 54.8535 115.54 62.625C115.164 66.7348 115.145 70.7863 115.105 74.8482C115.071 78.4845 114.959 82.1339 114.886 85.7751C114.857 87.1884 114.835 88.6012 114.81 90.0142L114.561 93.0179L114.561 93.0215Z" fill="white"/>
<path d="M79.5343 92.7921C66.2262 93.7825 56.314 83.7046 57.5061 70.3951C58.7097 56.9459 70.3787 45.2817 83.6448 44.307C97.0107 43.3245 106.812 53.242 105.674 66.695C104.537 80.1443 92.7697 91.8056 79.5326 92.7922L79.5343 92.7921ZM99.8871 67.0882C100.701 56.9473 93.1238 49.3263 83.0601 50.1646C72.9785 51.0043 64.116 59.9049 63.3089 70.0007C62.4961 80.1664 70.0498 87.775 80.1141 86.9313C90.1925 86.0865 99.0775 77.1717 99.8869 67.09L99.8871 67.0882Z" fill="white"/>
<path d="M55.5753 52.3562C55.6441 50.4593 55.7057 48.5647 55.7817 46.6672C55.816 45.8264 56.2334 45.3149 56.9125 45.2312C57.5826 45.15 57.9761 45.5675 57.9585 46.398C57.8583 51.1054 57.749 55.8152 57.6452 60.5228C57.5874 63.1395 56.4133 65.2675 54.1131 66.897C52.6529 67.9319 52.037 69.258 52.0443 70.898C52.0669 75.2327 52.0878 79.5674 52.0173 83.9165C51.9477 88.1481 51.7653 92.3957 51.626 96.6363C51.5856 97.8477 51.2798 99.0195 50.512 100.108C49.0386 102.198 46.691 102.393 45.5258 100.531C44.9542 99.617 44.7856 98.5573 44.9459 97.4129C45.9539 90.248 46.9744 83.0821 48.0125 75.9165C48.2517 74.2695 48.5723 72.6215 48.8541 70.9729C49.1224 69.4002 48.663 68.221 47.427 67.4481C45.2529 66.0836 44.4962 63.9883 44.9252 61.2035C45.6049 56.7834 46.203 52.3643 46.84 47.9457C46.8947 47.5642 46.9514 47.1789 47.0567 46.8041C47.2121 46.2527 47.6165 45.9628 48.1503 45.9244C48.6878 45.8856 49.0239 46.1403 49.0935 46.6669C49.1226 46.8924 49.1059 47.1357 49.0758 47.3712C48.5823 51.1681 48.087 54.9652 47.5846 58.7629C47.5034 59.3796 47.5532 59.9736 48.1638 60.1195C48.5264 60.2048 49.1192 60.1172 49.4038 59.8635C49.7302 59.5745 49.9556 59.0104 50.0095 58.5738C50.2989 56.2574 50.5172 53.9447 50.7657 51.6297C50.9315 50.0793 51.0991 48.5269 51.279 46.9753C51.3769 46.1367 51.8695 45.6139 52.5702 45.5694C53.2387 45.5275 53.6473 45.9544 53.6037 46.7586C53.4008 50.4419 53.1767 54.1269 52.9667 57.8108C52.9459 58.1897 52.9355 58.5713 52.9723 58.9385C53.0357 59.5599 53.4596 59.845 54.0527 59.7966C54.6456 59.7499 55.1087 59.3914 55.2926 58.7523C55.3398 58.5885 55.384 58.4177 55.3904 58.2553C55.4581 56.2873 55.5202 54.3215 55.5824 52.3557C55.5806 52.3558 55.5788 52.356 55.5771 52.3561L55.5753 52.3562Z" fill="white"/>
<path d="M82.6991 55.076C90.0587 54.4879 95.5664 60.0635 94.9597 67.4869C94.3541 74.8978 87.8555 81.4218 80.4809 82.02C73.1472 82.615 67.5965 77.0036 68.2026 69.6087C68.8085 62.2156 75.3448 55.6637 82.7009 55.0758L82.6991 55.076Z" fill="white"/>
</g>
</g>
<defs>
<filter id="filter0_d_611_2755" x="0.583008" y="0.506348" width="143.38" height="137.992" filterUnits="userSpaceOnUse" color-interpolation-filters="sRGB">
<feFlood flood-opacity="0" result="BackgroundImageFix"/>
<feColorMatrix in="SourceAlpha" type="matrix" values="0 0 0 0 0 0 0 0 0 0 0 0 0 0 0 0 0 0 127 0" result="hardAlpha"/>
<feOffset dx="-11" dy="-1"/>
<feGaussianBlur stdDeviation="3"/>
<feComposite in2="hardAlpha" operator="out"/>
<feColorMatrix type="matrix" values="0 0 0 0 0 0 0 0 0 0 0 0 0 0 0 0 0 0 0.25 0"/>
<feBlend mode="normal" in2="BackgroundImageFix" result="effect1_dropShadow_611_2755"/>
<feBlend mode="normal" in="SourceGraphic" in2="effect1_dropShadow_611_2755" result="shape"/>
</filter>
<filter id="filter1_b_611_2755" x="-22.417" y="-32.4937" width="206.38" height="205.992" filterUnits="userSpaceOnUse" color-interpolation-filters="sRGB">
<feFlood flood-opacity="0" result="BackgroundImageFix"/>
<feGaussianBlur in="BackgroundImageFix" stdDeviation="20"/>
<feComposite in2="SourceAlpha" operator="in" result="effect1_backgroundBlur_611_2755"/>
<feBlend mode="normal" in="SourceGraphic" in2="effect1_backgroundBlur_611_2755" result="shape"/>
</filter>
<linearGradient id="paint0_linear_611_2755" x1="12" y1="-1.87826e-06" x2="141.025" y2="18.6766" gradientUnits="userSpaceOnUse">
<stop stop-color="#6E7A8A"/>
<stop offset="1" stop-color="#6E7A8A" stop-opacity="0"/>
</linearGradient>
<linearGradient id="paint1_linear_611_2755" x1="67.7143" y1="-6" x2="77.7384" y2="119.301" gradientUnits="userSpaceOnUse">
<stop stop-color="#405E81"/>
<stop offset="1" stop-color="#0B1726"/>
</linearGradient>
<clipPath id="clip0_611_2755">
<rect width="73" height="59" fill="white" transform="matrix(0.996917 -0.0784591 -0.0826343 0.99658 46.3662 43.5078)"/>
</clipPath>
</defs>
</svg>
