<svg width="205" height="37" viewBox="0 0 205 37" fill="none" xmlns="http://www.w3.org/2000/svg">
<g clip-path="url(#clip0_65_4368)">
<mask id="mask0_65_4368" style="mask-type:luminance" maskUnits="userSpaceOnUse" x="0" y="0" width="205" height="37">
<path d="M204.26 0H0V36.06H204.26V0Z" fill="white"/>
</mask>
<g mask="url(#mask0_65_4368)">
<path d="M26.94 36.06H9.13C4.09 36.06 0 31.98 0 26.94V9.13C0 4.09 4.09 0 9.13 0H26.94C31.98 0 36.07 4.09 36.07 9.13V26.94C36.07 31.98 31.98 36.07 26.94 36.07" fill="#2D3847"/>
<path d="M23.56 11.3599C22.88 11.3599 22.33 11.9099 22.33 12.5799C22.33 13.2499 22.88 13.8099 23.55 13.8099C24.23 13.8099 24.78 13.2599 24.78 12.5899C24.78 11.9099 24.23 11.3599 23.56 11.3599Z" fill="#F6F6F6"/>
<path d="M18.12 12.9302C15.28 12.9302 12.98 15.2302 12.98 18.0702C12.98 20.9102 15.28 23.2102 18.12 23.2102C20.96 23.2102 23.26 20.9102 23.26 18.0702C23.26 15.2302 20.96 12.9302 18.12 12.9302ZM18.12 21.3702C16.3 21.3702 14.83 19.8902 14.83 18.0702C14.83 16.2502 16.31 14.7802 18.13 14.7802C19.95 14.7802 21.42 16.2502 21.42 18.0702C21.42 19.8902 19.94 21.3702 18.12 21.3702Z" fill="#F6F6F6"/>
<path d="M22.2 28.5099H13.86C10.4 28.5099 7.59 25.6999 7.59 22.2399V13.8999C7.59 10.4399 10.4 7.62988 13.86 7.62988H22.2C25.66 7.62988 28.47 10.4399 28.47 13.8999V22.2399C28.47 25.6999 25.66 28.5099 22.2 28.5099ZM13.86 9.58988C11.48 9.58988 9.55 11.5199 9.55 13.8999V22.2399C9.55 24.6199 11.48 26.5499 13.86 26.5499H22.2C24.58 26.5499 26.51 24.6199 26.51 22.2399V13.8999C26.51 11.5199 24.58 9.58988 22.2 9.58988H13.86Z" fill="#F6F6F6"/>
</g>
</g>
<defs>
<clipPath id="clip0_65_4368">
<rect width="204.26" height="36.07" fill="white"/>
</clipPath>
</defs>
</svg>
