<svg width="96" height="10" viewBox="0 0 96 10" fill="none" xmlns="http://www.w3.org/2000/svg">
<g clip-path="url(#clip0_611_2593)">
<path d="M87.3169 2.60604V7.75213C87.3169 8.9821 88.3249 10 89.5537 10C90.5617 10 91.3537 9.39209 91.6417 8.52498L91.8769 8.93497C92.2993 9.623 93.0385 10 93.7969 10C95.0257 10 96.0001 9.04807 96.0001 7.83695C96.0001 7.42696 95.8993 7.03582 95.6641 6.67296L94.7905 5.31103C95.4289 4.83507 95.8177 4.08106 95.8177 3.16212C95.8177 1.47503 94.4401 0.160233 92.6737 0.160233H89.7649C88.1857 0.160233 87.3265 0.994351 87.3265 2.60133L87.3169 2.60604Z" fill="white"/>
<path d="M86.6497 8.11498C86.6497 7.17247 86.0353 6.46088 85.1905 6.29594C85.5697 6.04618 85.8049 5.63619 85.8049 5.08953C85.8049 4.54288 85.5889 4.13289 85.1905 3.88312C86.0545 3.71818 86.6497 3.02544 86.6497 2.06408C86.6497 1.00848 85.7857 0.164932 84.7393 0.164932H81.2545C79.6609 0.164932 78.7969 1.00848 78.7969 2.61074V7.55419C78.7969 9.1753 79.6609 9.99999 81.2545 9.99999H84.7393C85.7857 10.0141 86.6497 9.1753 86.6497 8.11498Z" fill="white"/>
<path d="M76.0992 7.78512V4.39209C77.2176 4.34496 78.1344 3.42602 78.1344 2.27616C78.1344 1.1263 77.1648 0.160233 75.9792 0.160233H71.4384C70.2528 0.160233 69.2832 1.07918 69.2832 2.27616C69.2832 3.47315 70.2 4.32611 71.3184 4.39209V7.78512C71.3184 8.99624 72.3696 10 73.6704 10C75.0576 10 76.0896 9.00095 76.0896 7.78512H76.0992Z" fill="white"/>
<path d="M60.437 2.60604V7.75213C60.437 8.9821 61.445 10 62.6738 10C63.6818 10 64.4738 9.39209 64.7618 8.52498L64.997 8.93497C65.4194 9.623 66.1586 10 66.917 10C68.1458 10 69.1202 9.04807 69.1202 7.83695C69.1202 7.42696 69.0194 7.03582 68.7842 6.67296L67.9106 5.31103C68.549 4.83507 68.9378 4.08106 68.9378 3.16212C68.9378 1.47503 67.5602 0.160233 65.7938 0.160233H62.885C61.3202 0.160233 60.4466 0.994351 60.4466 2.60133L60.437 2.60604Z" fill="white"/>
<path d="M54.9166 8.12441C55.4878 9.27898 56.2894 9.83506 57.2782 9.83506C59.0542 9.83506 60.3118 8.25636 59.539 6.47974L57.4798 1.79076C56.9758 0.636192 56.2222 0 54.931 0C53.6398 0 52.9054 0.636192 52.3822 1.79076L50.323 6.47974C49.5358 8.25636 50.8078 9.83506 52.5694 9.83506C53.539 9.83506 54.3454 9.28369 54.9166 8.12441Z" fill="white"/>
<path d="M49.0466 7.78512V4.39209C50.165 4.34496 51.0866 3.42602 51.0866 2.27616C51.0866 1.1263 50.117 0.160233 48.9266 0.160233H44.3954C43.2098 0.160233 42.2354 1.07918 42.2354 2.27616C42.2354 3.47315 43.157 4.32611 44.2754 4.39209V7.78512C44.2754 8.99624 45.3314 10 46.6322 10C47.933 10 49.0418 9.00095 49.0418 7.78512H49.0466Z" fill="white"/>
<path d="M42.2398 6.80961C42.2398 5.82469 41.7358 5.13195 40.987 4.47219L40.3678 3.93025C41.2702 3.7983 41.875 3.20452 41.875 2.3327C41.875 0.867104 40.6894 -0.00471497 38.179 -0.00471497C35.6686 -0.00471497 34.2814 1.21112 34.2814 3.13855C34.2814 4.12347 34.7998 4.79736 35.5534 5.47596L36.1534 6.01791H36.139C35.0158 6.01791 34.2334 6.65881 34.2334 7.66258C34.2334 9.10933 35.4718 10 38.1166 10C40.7614 10 42.2494 8.76531 42.2494 6.80961H42.2398Z" fill="white"/>
<path d="M33.7249 7.63431C33.7249 7.17719 33.5904 6.73893 33.3024 6.34779L32.2224 4.89633L33.3024 3.44487C33.5904 3.06786 33.7249 2.61075 33.7249 2.15834C33.7249 0.951934 32.6976 0.0235651 31.4832 0.0235651C30.7776 0.0235651 30.0672 0.36758 29.6304 0.951935L29.1072 1.66824C28.9056 0.706883 28.0465 0.00471497 26.9521 0.00471497C25.6897 0.00471497 24.7104 0.984922 24.7104 2.19133V7.65316C24.7104 8.85957 25.7041 9.83978 26.9521 9.83978C28.0321 9.83978 28.872 9.18945 29.0928 8.24223L29.5632 8.89256C30 9.51461 30.7248 9.83978 31.4352 9.83978C32.6976 9.85391 33.7249 8.84543 33.7249 7.63902V7.63431Z" fill="white"/>
<path d="M23.8751 7.13006C23.8751 6.08859 23.3423 5.35344 22.2815 4.91517C23.3423 4.47691 23.8751 3.7606 23.8751 2.70028C23.8751 1.12158 22.5311 -0.00471497 20.3711 -0.00471497C17.4815 -0.00471497 15.3599 2.09708 15.3599 4.91046C15.3599 7.72384 17.4863 9.82563 20.3711 9.82563C22.5311 9.82563 23.8751 8.70405 23.8751 7.12064V7.13006Z" fill="white"/>
<path d="M12.1104 0C10.7616 0 9.68164 1.07917 9.68164 2.35156V7.48351C9.68164 8.77474 10.7616 9.83506 12.096 9.83506C13.4304 9.83506 14.5248 8.75589 14.5248 7.48351V2.35156C14.544 1.07917 13.464 0 12.1104 0Z" fill="white"/>
<path d="M9.0144 7.63446C9.0144 7.17734 8.88 6.73908 8.592 6.34794L7.5168 4.89647L8.592 3.44501C8.88 3.06801 9.0144 2.61089 9.0144 2.15849C9.0144 0.94737 7.992 0.0142878 6.7776 0.0142878C6.072 0.0142878 5.3664 0.358303 4.9296 0.942657L4.392 1.65896C4.1904 0.697605 3.3312 -0.00456238 2.2368 -0.00456238C0.9744 0.000150158 0 0.980358 0 2.18677V7.64859C0 8.855 0.9936 9.83521 2.2368 9.83521C3.312 9.83521 4.152 9.18488 4.3728 8.23766L4.8432 8.88799C5.28 9.51005 6.0048 9.83521 6.7104 9.83521C7.9872 9.84935 9.0144 8.84087 9.0144 7.63446Z" fill="white"/>
</g>
<defs>
<clipPath id="clip0_611_2593">
<rect width="96" height="10" fill="white"/>
</clipPath>
</defs>
</svg>
