<svg width="91" height="21" viewBox="0 0 91 21" fill="none" xmlns="http://www.w3.org/2000/svg">
<g clip-path="url(#clip0_611_2605)">
<path d="M13.8779 15.7389C18.2026 15.7389 21.7084 12.2156 21.7084 7.86945C21.7084 3.52327 18.2026 0 13.8779 0C9.55321 0 6.04736 3.52327 6.04736 7.86945C6.04736 12.2156 9.55321 15.7389 13.8779 15.7389Z" fill="white"/>
<path d="M3.83139 0H0V21H3.83139V0Z" fill="white"/>
<path d="M28.1528 3.673H31.6311C33.4673 3.673 34.6591 5.06591 34.6591 6.68948C34.6591 8.31305 33.4762 9.70596 31.6311 9.70596H30.0774V12.0215H28.1528V3.673ZM32.717 6.68948C32.717 5.91762 32.1961 5.24335 31.3839 5.24335H30.0685V8.12674H31.3839C32.1961 8.13561 32.717 7.47022 32.717 6.68948Z" fill="white"/>
<path d="M42.0128 12.0215L41.695 11.0101H38.7375L38.4197 12.0215H36.3628L39.329 3.673H41.0947L44.0962 12.0215H42.0128ZM40.2207 6.05957L39.1966 9.49303H41.2182L40.2207 6.05957Z" fill="white"/>
<path d="M47.3276 5.34094H45.4561V3.673H51.1413V5.34094H49.2521V12.0215H47.3276V5.34094Z" fill="white"/>
<path d="M54.1338 3.673H57.6209C59.4571 3.673 60.6489 5.06591 60.6489 6.68948C60.6489 7.86058 60.031 8.89861 58.9981 9.38657L60.6577 12.0215H58.4242L56.9588 9.70596H56.0583V12.0215H54.1338V3.673ZM58.6979 6.68948C58.6979 5.91762 58.1771 5.24335 57.3649 5.24335H56.0495V8.12674H57.3649C58.1771 8.13561 58.6979 7.47022 58.6979 6.68948Z" fill="white"/>
<path d="M65.8312 5.2256V7.12421H68.9829V8.64132H65.8401V10.4778H68.9829V12.0304H63.9155V3.673H68.9829V5.2256H65.8312Z" fill="white"/>
<path d="M72.0991 7.85172C72.0991 5.56274 73.7411 3.46008 76.5043 3.46008C79.2675 3.46008 80.8919 5.56274 80.8919 7.85172C80.8919 10.1407 79.2499 12.2434 76.5043 12.2434C73.7411 12.2345 72.0991 10.1407 72.0991 7.85172ZM78.9409 7.85172C78.9409 6.47656 78.0139 5.20786 76.5043 5.20786C74.9947 5.20786 74.0678 6.48543 74.0678 7.85172C74.0678 9.218 74.9859 10.4956 76.5043 10.4956C78.0228 10.4956 78.9409 9.218 78.9409 7.85172Z" fill="white"/>
<path d="M89.093 9.11153V3.673H90.9998V12.0215H88.9959L86.0031 6.65399V12.0215H84.0786V3.673H86.0826L89.093 9.11153Z" fill="white"/>
</g>
<defs>
<clipPath id="clip0_611_2605">
<rect width="91" height="21" fill="white"/>
</clipPath>
</defs>
</svg>
