<svg width="205" height="37" viewBox="0 0 205 37" fill="none" xmlns="http://www.w3.org/2000/svg">
<g clip-path="url(#clip0_65_4368)">
<mask id="mask0_65_4368" style="mask-type:luminance" maskUnits="userSpaceOnUse" x="0" y="0" width="205" height="37">
<path d="M204.26 0H0V36.06H204.26V0Z" fill="white"/>
</mask>
<g mask="url(#mask0_65_4368)">
<path d="M195.13 36.06H177.32C172.28 36.06 168.19 31.97 168.19 26.93V9.13C168.2 4.09 172.28 0 177.32 0H195.13C200.17 0 204.26 4.09 204.26 9.13V26.94C204.26 31.98 200.17 36.07 195.13 36.07" fill="#2D3847"/>
<path d="M196.07 12.0502C195.44 12.3202 194.78 12.5102 194.11 12.6102C194.43 12.5602 194.89 11.9902 195.08 11.7502C195.37 11.4002 195.59 11.0002 195.73 10.5602C195.75 10.5302 195.76 10.4802 195.73 10.4602C195.7 10.4502 195.66 10.4602 195.63 10.4602C194.89 10.8502 194.11 11.1502 193.3 11.3502C193.24 11.3702 193.18 11.3502 193.14 11.3102C193.08 11.2402 193.01 11.1702 192.94 11.1002C192.6 10.8102 192.22 10.5802 191.81 10.4102C191.26 10.1902 190.67 10.0902 190.08 10.1302C189.51 10.1702 188.95 10.3302 188.44 10.5902C187.93 10.8602 187.48 11.2202 187.12 11.6702C186.74 12.1302 186.47 12.6702 186.33 13.2602C186.21 13.8102 186.19 14.3802 186.29 14.9302C186.3 15.0202 186.29 15.0402 186.21 15.0202C183.13 14.7002 180.28 13.2502 178.21 10.9502C178.12 10.8402 178.07 10.8402 177.99 10.9502C177.13 12.5302 177.42 14.4802 178.68 15.7502C178.84 15.9002 179 16.0502 179.17 16.1802C178.63 16.1402 178.11 15.9902 177.63 15.7502C177.54 15.6902 177.49 15.7302 177.48 15.8302C177.48 15.9802 177.48 16.1402 177.5 16.2902C177.69 17.7502 178.65 19.0002 180.01 19.5502C180.17 19.6202 180.35 19.6702 180.52 19.7102C180.02 19.8102 179.51 19.8302 179.01 19.7602C178.9 19.7402 178.86 19.7902 178.9 19.9002C179.43 21.2802 180.63 22.2902 182.08 22.5702C182.22 22.5902 182.37 22.5902 182.51 22.6302C182.51 22.6402 182.49 22.6402 182.48 22.6602C181.86 23.2202 181.12 23.6102 180.31 23.8102C179.25 24.1902 178.13 24.3302 177.01 24.2302C176.83 24.2002 176.8 24.2102 176.75 24.2302C176.7 24.2502 176.75 24.3002 176.8 24.3502C177.03 24.5002 177.25 24.6302 177.49 24.7602C178.19 25.1302 178.93 25.4302 179.7 25.6402C183.71 26.8502 188.05 25.8302 191.11 22.9702C193.3 20.6002 194.43 17.4502 194.27 14.2302C194.27 14.1102 194.42 14.0402 194.51 13.9702C195.1 13.5102 195.63 12.9702 196.06 12.3602C196.13 12.2702 196.16 12.1602 196.16 12.0502V12.0302C196.16 11.9802 196.16 11.9902 196.08 12.0302" fill="#F6F6F6"/>
<path d="M26.94 36.06H9.13C4.09 36.06 0 31.98 0 26.94V9.13C0 4.09 4.09 0 9.13 0H26.94C31.98 0 36.07 4.09 36.07 9.13V26.94C36.07 31.98 31.98 36.07 26.94 36.07" fill="#2D3847"/>
<path d="M23.56 11.3599C22.88 11.3599 22.33 11.9099 22.33 12.5799C22.33 13.2499 22.88 13.8099 23.55 13.8099C24.23 13.8099 24.78 13.2599 24.78 12.5899C24.78 11.9099 24.23 11.3599 23.56 11.3599Z" fill="#F6F6F6"/>
<path d="M18.12 12.9302C15.28 12.9302 12.98 15.2302 12.98 18.0702C12.98 20.9102 15.28 23.2102 18.12 23.2102C20.96 23.2102 23.26 20.9102 23.26 18.0702C23.26 15.2302 20.96 12.9302 18.12 12.9302ZM18.12 21.3702C16.3 21.3702 14.83 19.8902 14.83 18.0702C14.83 16.2502 16.31 14.7802 18.13 14.7802C19.95 14.7802 21.42 16.2502 21.42 18.0702C21.42 19.8902 19.94 21.3702 18.12 21.3702Z" fill="#F6F6F6"/>
<path d="M22.2 28.5099H13.86C10.4 28.5099 7.59 25.6999 7.59 22.2399V13.8999C7.59 10.4399 10.4 7.62988 13.86 7.62988H22.2C25.66 7.62988 28.47 10.4399 28.47 13.8999V22.2399C28.47 25.6999 25.66 28.5099 22.2 28.5099ZM13.86 9.58988C11.48 9.58988 9.55 11.5199 9.55 13.8999V22.2399C9.55 24.6199 11.48 26.5499 13.86 26.5499H22.2C24.58 26.5499 26.51 24.6199 26.51 22.2399V13.8999C26.51 11.5199 24.58 9.58988 22.2 9.58988H13.86Z" fill="#F6F6F6"/>
<path d="M139.07 36.06H132.95L130.16 35.14L127.39 36.06H121.25C116.21 36.06 112.12 31.97 112.12 26.93V9.13C112.13 4.09 116.22 0 121.26 0H139.07C144.11 0 148.2 4.08 148.2 9.12V26.93C148.2 31.97 144.11 36.06 139.07 36.06Z" fill="#2D3847"/>
<path d="M127.38 14.1102V18.0302H122.86V23.1802H127.38V36.0602H132.95V23.1802H137.1L137.89 18.0302H132.95V14.6902C132.82 13.2702 133.87 12.0202 135.29 11.9002C135.48 11.8802 135.67 11.8902 135.85 11.9102H138.1V7.53018C136.78 7.32018 135.45 7.20018 134.11 7.18018C130.04 7.18018 127.38 9.64018 127.38 14.1102Z" fill="#F6F6F6"/>
<path d="M83 36.06H65.19C60.15 36.06 56.06 31.97 56.06 26.93V9.13C56.07 4.09 60.15 0 65.19 0H83C88.04 0 92.13 4.08 92.13 9.13V26.94C92.13 31.98 88.04 36.07 83 36.07" fill="#2D3847"/>
<path d="M83.63 15.8601C83.63 13.5001 81.72 11.5801 79.35 11.5801H68.41C66.05 11.5801 64.13 13.4901 64.13 15.8601V20.9501C64.13 23.3101 66.04 25.2301 68.41 25.2301H79.35C81.71 25.2301 83.63 23.3201 83.63 20.9501V15.8601ZM77.2 18.7901L72.3 21.2201C72.11 21.3201 71.45 21.1801 71.45 20.9701V15.9901C71.45 15.7701 72.11 15.6301 72.3 15.7401L76.99 18.2901C77.19 18.4001 77.39 18.6901 77.19 18.7901" fill="#F6F6F6"/>
</g>
</g>
<defs>
<clipPath id="clip0_65_4368">
<rect width="204.26" height="36.07" fill="white"/>
</clipPath>
</defs>
</svg>
