<svg width="205" height="37" viewBox="0 0 205 37" fill="none" xmlns="http://www.w3.org/2000/svg">
<g clip-path="url(#clip0_65_4368)">
<mask id="mask0_65_4368" style="mask-type:luminance" maskUnits="userSpaceOnUse" x="0" y="0" width="205" height="37">
<path d="M204.26 0H0V36.06H204.26V0Z" fill="white"/>
</mask>
<g mask="url(#mask0_65_4368)">
<path d="M195.13 36.06H177.32C172.28 36.06 168.19 31.97 168.19 26.93V9.13C168.2 4.09 172.28 0 177.32 0H195.13C200.17 0 204.26 4.09 204.26 9.13V26.94C204.26 31.98 200.17 36.07 195.13 36.07" fill="#2D3847"/>
<path d="M196.07 12.0502C195.44 12.3202 194.78 12.5102 194.11 12.6102C194.43 12.5602 194.89 11.9902 195.08 11.7502C195.37 11.4002 195.59 11.0002 195.73 10.5602C195.75 10.5302 195.76 10.4802 195.73 10.4602C195.7 10.4502 195.66 10.4602 195.63 10.4602C194.89 10.8502 194.11 11.1502 193.3 11.3502C193.24 11.3702 193.18 11.3502 193.14 11.3102C193.08 11.2402 193.01 11.1702 192.94 11.1002C192.6 10.8102 192.22 10.5802 191.81 10.4102C191.26 10.1902 190.67 10.0902 190.08 10.1302C189.51 10.1702 188.95 10.3302 188.44 10.5902C187.93 10.8602 187.48 11.2202 187.12 11.6702C186.74 12.1302 186.47 12.6702 186.33 13.2602C186.21 13.8102 186.19 14.3802 186.29 14.9302C186.3 15.0202 186.29 15.0402 186.21 15.0202C183.13 14.7002 180.28 13.2502 178.21 10.9502C178.12 10.8402 178.07 10.8402 177.99 10.9502C177.13 12.5302 177.42 14.4802 178.68 15.7502C178.84 15.9002 179 16.0502 179.17 16.1802C178.63 16.1402 178.11 15.9902 177.63 15.7502C177.54 15.6902 177.49 15.7302 177.48 15.8302C177.48 15.9802 177.48 16.1402 177.5 16.2902C177.69 17.7502 178.65 19.0002 180.01 19.5502C180.17 19.6202 180.35 19.6702 180.52 19.7102C180.02 19.8102 179.51 19.8302 179.01 19.7602C178.9 19.7402 178.86 19.7902 178.9 19.9002C179.43 21.2802 180.63 22.2902 182.08 22.5702C182.22 22.5902 182.37 22.5902 182.51 22.6302C182.51 22.6402 182.49 22.6402 182.48 22.6602C181.86 23.2202 181.12 23.6102 180.31 23.8102C179.25 24.1902 178.13 24.3302 177.01 24.2302C176.83 24.2002 176.8 24.2102 176.75 24.2302C176.7 24.2502 176.75 24.3002 176.8 24.3502C177.03 24.5002 177.25 24.6302 177.49 24.7602C178.19 25.1302 178.93 25.4302 179.7 25.6402C183.71 26.8502 188.05 25.8302 191.11 22.9702C193.3 20.6002 194.43 17.4502 194.27 14.2302C194.27 14.1102 194.42 14.0402 194.51 13.9702C195.1 13.5102 195.63 12.9702 196.06 12.3602C196.13 12.2702 196.16 12.1602 196.16 12.0502V12.0302C196.16 11.9802 196.16 11.9902 196.08 12.0302" fill="#F6F6F6"/>
</g>
</g>
<defs>
<clipPath id="clip0_65_4368">
<rect width="204.26" height="36.07" fill="white"/>
</clipPath>
</defs>
</svg>
