<svg width="205" height="37" viewBox="0 0 205 37" fill="none" xmlns="http://www.w3.org/2000/svg">
<g clip-path="url(#clip0_65_4368)">
<mask id="mask0_65_4368" style="mask-type:luminance" maskUnits="userSpaceOnUse" x="0" y="0" width="205" height="37">
<path d="M204.26 0H0V36.06H204.26V0Z" fill="white"/>
</mask>
<g mask="url(#mask0_65_4368)">
<path d="M83 36.06H65.19C60.15 36.06 56.06 31.97 56.06 26.93V9.13C56.07 4.09 60.15 0 65.19 0H83C88.04 0 92.13 4.08 92.13 9.13V26.94C92.13 31.98 88.04 36.07 83 36.07" fill="#2D3847"/>
<path d="M83.63 15.8601C83.63 13.5001 81.72 11.5801 79.35 11.5801H68.41C66.05 11.5801 64.13 13.4901 64.13 15.8601V20.9501C64.13 23.3101 66.04 25.2301 68.41 25.2301H79.35C81.71 25.2301 83.63 23.3201 83.63 20.9501V15.8601ZM77.2 18.7901L72.3 21.2201C72.11 21.3201 71.45 21.1801 71.45 20.9701V15.9901C71.45 15.7701 72.11 15.6301 72.3 15.7401L76.99 18.2901C77.19 18.4001 77.39 18.6901 77.19 18.7901" fill="#F6F6F6"/> -->
</g>
</g>
<defs>
<clipPath id="clip0_65_4368">
<rect width="204.26" height="36.07" fill="white"/>
</clipPath>
</defs>
</svg>
